<svg width="382" height="54" viewBox="0 0 382 54" fill="none" xmlns="http://www.w3.org/2000/svg">
<g clip-path="url(#clip0_251_1360)">
<path d="M46.39 20.15H51.35V24.78H51.44C51.59 24.13 51.9 23.5 52.34 22.88C52.79 22.26 53.33 21.7 53.96 21.19C54.59 20.68 55.29 20.27 56.07 19.96C56.84 19.65 57.63 19.5 58.43 19.5C59.05 19.5 59.47 19.52 59.7 19.55C59.93 19.58 60.17 19.61 60.42 19.64V24.73C60.05 24.67 59.67 24.61 59.29 24.57C58.9 24.52 58.53 24.5 58.16 24.5C57.26 24.5 56.42 24.68 55.64 25.03C54.85 25.39 54.17 25.91 53.58 26.6C52.99 27.3 52.53 28.15 52.19 29.17C51.85 30.19 51.68 31.36 51.68 32.69V44.08H46.4V20.14L46.39 20.15Z" fill="#496E83"/>
<path d="M65.98 33.48C65.98 34.41 66.11 35.3 66.37 36.17C66.63 37.04 67.03 37.79 67.55 38.44C68.07 39.09 68.74 39.61 69.54 39.99C70.34 40.38 71.3 40.57 72.41 40.57C73.95 40.57 75.2 40.24 76.14 39.57C77.08 38.91 77.78 37.91 78.25 36.58H83.25C82.97 37.88 82.49 39.04 81.81 40.05C81.13 41.06 80.31 41.93 79.36 42.62C78.4 43.32 77.33 43.84 76.14 44.2C74.95 44.55 73.71 44.73 72.41 44.73C70.53 44.73 68.86 44.42 67.41 43.8C65.96 43.18 64.73 42.32 63.73 41.21C62.73 40.1 61.97 38.77 61.46 37.23C60.95 35.69 60.7 33.99 60.7 32.14C60.7 30.44 60.97 28.83 61.51 27.3C62.05 25.77 62.82 24.43 63.83 23.27C64.83 22.11 66.04 21.19 67.47 20.51C68.89 19.83 70.5 19.49 72.29 19.49C74.17 19.49 75.86 19.88 77.36 20.67C78.86 21.46 80.1 22.5 81.09 23.8C82.08 25.1 82.8 26.59 83.24 28.27C83.69 29.95 83.8 31.69 83.59 33.48H65.99H65.98ZM78.3 30.01C78.24 29.18 78.06 28.37 77.77 27.6C77.48 26.83 77.08 26.16 76.57 25.59C76.06 25.02 75.44 24.56 74.72 24.2C73.99 23.85 73.18 23.67 72.29 23.67C71.4 23.67 70.52 23.83 69.77 24.16C69.01 24.48 68.36 24.93 67.83 25.5C67.29 26.07 66.86 26.74 66.53 27.51C66.21 28.28 66.03 29.12 66 30.01H78.32H78.3Z" fill="#496E83"/>
<path d="M91.73 33.48C91.73 34.41 91.86 35.3 92.12 36.17C92.38 37.04 92.78 37.79 93.3 38.44C93.82 39.09 94.49 39.61 95.29 39.99C96.09 40.38 97.05 40.57 98.16 40.57C99.7 40.57 100.95 40.24 101.89 39.57C102.83 38.91 103.53 37.91 104 36.58H109C108.72 37.88 108.24 39.04 107.56 40.05C106.88 41.07 106.06 41.93 105.11 42.62C104.15 43.32 103.08 43.84 101.89 44.2C100.7 44.55 99.46 44.73 98.16 44.73C96.28 44.73 94.61 44.42 93.16 43.8C91.71 43.18 90.48 42.32 89.48 41.21C88.48 40.1 87.72 38.77 87.21 37.23C86.7 35.69 86.45 33.99 86.45 32.14C86.45 30.44 86.72 28.83 87.26 27.3C87.8 25.77 88.57 24.43 89.58 23.27C90.58 22.11 91.79 21.19 93.22 20.51C94.64 19.83 96.25 19.49 98.04 19.49C99.92 19.49 101.61 19.88 103.11 20.67C104.61 21.46 105.85 22.5 106.84 23.8C107.83 25.1 108.55 26.59 108.99 28.27C109.44 29.95 109.55 31.69 109.34 33.48H91.74H91.73ZM104.05 30.01C103.99 29.18 103.81 28.37 103.52 27.6C103.23 26.83 102.82 26.16 102.32 25.59C101.81 25.02 101.19 24.56 100.47 24.2C99.74 23.85 98.93 23.67 98.04 23.67C97.15 23.67 96.27 23.83 95.52 24.16C94.76 24.48 94.11 24.93 93.58 25.5C93.04 26.07 92.61 26.74 92.28 27.51C91.96 28.28 91.78 29.12 91.75 30.01H104.07H104.05Z" fill="#496E83"/>
<path d="M112.53 20.1501H131.98V23.8601L118.27 39.9301H132.67V44.1001H111.6V40.3901L124.85 24.3201H112.53V20.1501Z" fill="#496E83"/>
<path d="M156.57 38.76C156.57 39.41 156.65 39.87 156.82 40.15C156.99 40.43 157.32 40.57 157.82 40.57H158.38C158.59 40.57 158.84 40.54 159.12 40.48V44.14C158.94 44.2 158.7 44.27 158.4 44.35C158.11 44.43 157.81 44.5 157.5 44.56C157.19 44.62 156.88 44.67 156.57 44.7C156.26 44.73 156 44.75 155.78 44.75C154.7 44.75 153.8 44.53 153.09 44.1C152.38 43.67 151.92 42.91 151.7 41.83C150.65 42.85 149.36 43.59 147.83 44.05C146.3 44.51 144.83 44.74 143.41 44.74C142.33 44.74 141.29 44.59 140.31 44.3C139.32 44.01 138.45 43.58 137.69 43C136.93 42.43 136.33 41.7 135.88 40.82C135.43 39.94 135.21 38.91 135.21 37.74C135.21 36.26 135.48 35.05 136.02 34.13C136.56 33.2 137.27 32.48 138.15 31.95C139.03 31.43 140.02 31.05 141.11 30.82C142.2 30.59 143.31 30.41 144.42 30.29C145.38 30.1 146.29 29.97 147.15 29.9C148.01 29.82 148.78 29.69 149.44 29.51C150.1 29.33 150.63 29.04 151.02 28.65C151.41 28.26 151.6 27.69 151.6 26.91C151.6 26.23 151.44 25.68 151.11 25.24C150.79 24.81 150.38 24.48 149.91 24.24C149.43 24.01 148.9 23.85 148.31 23.78C147.72 23.7 147.17 23.66 146.64 23.66C145.16 23.66 143.94 23.97 142.98 24.59C142.02 25.21 141.48 26.17 141.36 27.46H136.08C136.17 25.92 136.54 24.63 137.19 23.62C137.84 22.6 138.66 21.78 139.67 21.16C140.67 20.54 141.81 20.11 143.07 19.86C144.34 19.61 145.63 19.49 146.96 19.49C148.13 19.49 149.29 19.61 150.43 19.86C151.57 20.11 152.6 20.51 153.51 21.06C154.42 21.62 155.15 22.33 155.71 23.21C156.27 24.09 156.54 25.16 156.54 26.43V38.75L156.57 38.76ZM151.29 32.09C150.49 32.62 149.5 32.93 148.33 33.04C147.16 33.15 145.98 33.31 144.81 33.53C144.25 33.62 143.71 33.75 143.19 33.92C142.66 34.09 142.2 34.32 141.8 34.62C141.4 34.91 141.08 35.3 140.85 35.78C140.62 36.26 140.5 36.84 140.5 37.52C140.5 38.11 140.67 38.6 141.01 39C141.35 39.4 141.76 39.72 142.24 39.95C142.72 40.18 143.24 40.34 143.82 40.44C144.39 40.53 144.91 40.58 145.37 40.58C145.96 40.58 146.59 40.5 147.27 40.35C147.95 40.2 148.59 39.93 149.19 39.56C149.79 39.19 150.29 38.72 150.69 38.15C151.09 37.58 151.29 36.88 151.29 36.04V32.1V32.09Z" fill="#496E83"/>
<path d="M198.51 17.6201C197.88 16.6201 197.1 15.7801 196.19 15.1001C195.28 14.4201 194.27 13.9001 193.18 13.5501C192.08 13.2001 190.93 13.0201 189.73 13.0201C187.54 13.0201 185.65 13.4401 184.08 14.2701C182.51 15.1001 181.22 16.2101 180.21 17.5801C179.2 18.9501 178.47 20.5101 177.99 22.2301C177.51 23.9601 177.27 25.7301 177.27 27.5601C177.27 29.3901 177.51 31.1201 177.99 32.8601C178.47 34.6001 179.21 36.1601 180.21 37.5401C181.21 38.9201 182.5 40.0201 184.08 40.8501C185.66 41.6801 187.54 42.1001 189.73 42.1001C191.27 42.1001 192.66 41.8201 193.9 41.2701C195.13 40.7101 196.2 39.9601 197.1 39.0001C198 38.0401 198.72 36.9201 199.28 35.6401C199.84 34.3601 200.19 32.9801 200.35 31.5001H203.5C203.28 33.5401 202.81 35.3801 202.06 37.0101C201.32 38.6501 200.36 40.0401 199.19 41.1801C198.02 42.3201 196.63 43.2001 195.04 43.8201C193.45 44.4401 191.68 44.7501 189.74 44.7501C187.15 44.7501 184.87 44.2801 182.91 43.3401C180.95 42.4001 179.32 41.1401 178.02 39.5601C176.72 37.9901 175.75 36.1601 175.1 34.1001C174.45 32.0301 174.13 29.8601 174.13 27.5701C174.13 25.2801 174.45 23.1101 175.1 21.0401C175.75 18.9701 176.72 17.1401 178.02 15.5501C179.32 13.9601 180.94 12.6901 182.91 11.7501C184.87 10.8101 187.15 10.3401 189.74 10.3401C191.31 10.3401 192.85 10.5701 194.35 11.0301C195.85 11.4901 197.21 12.1801 198.43 13.0901C199.65 14.0001 200.67 15.1201 201.49 16.4501C202.31 17.7801 202.82 19.3101 203.04 21.0301H199.89C199.61 19.7601 199.16 18.6301 198.52 17.6301L198.51 17.6201Z" fill="#496E83"/>
<path d="M222.68 20.52C224.08 21.2 225.26 22.11 226.22 23.25C227.18 24.39 227.9 25.73 228.4 27.26C228.89 28.79 229.14 30.42 229.14 32.15C229.14 33.88 228.89 35.51 228.4 37.04C227.9 38.57 227.18 39.9 226.22 41.05C225.26 42.19 224.08 43.1 222.68 43.76C221.27 44.42 219.66 44.76 217.84 44.76C216.02 44.76 214.4 44.43 213 43.76C211.59 43.1 210.41 42.19 209.46 41.05C208.5 39.91 207.78 38.57 207.28 37.04C206.78 35.51 206.54 33.88 206.54 32.15C206.54 30.42 206.79 28.79 207.28 27.26C207.77 25.73 208.5 24.4 209.46 23.25C210.42 22.11 211.6 21.2 213 20.52C214.4 19.84 216.02 19.5 217.84 19.5C219.66 19.5 221.27 19.84 222.68 20.52ZM214.18 22.83C213.13 23.42 212.26 24.19 211.56 25.15C210.86 26.11 210.34 27.19 209.99 28.41C209.63 29.63 209.46 30.87 209.46 32.14C209.46 33.41 209.64 34.65 209.99 35.87C210.34 37.09 210.87 38.18 211.56 39.14C212.25 40.1 213.13 40.87 214.18 41.46C215.23 42.05 216.45 42.34 217.84 42.34C219.23 42.34 220.45 42.05 221.5 41.46C222.55 40.87 223.42 40.1 224.12 39.14C224.81 38.18 225.34 37.1 225.69 35.87C226.04 34.65 226.22 33.41 226.22 32.14C226.22 30.87 226.04 29.63 225.69 28.41C225.33 27.19 224.81 26.1 224.12 25.15C223.42 24.19 222.55 23.42 221.5 22.83C220.45 22.24 219.23 21.95 217.84 21.95C216.45 21.95 215.23 22.24 214.18 22.83Z" fill="#496E83"/>
<path d="M236.37 20.19V24.31H236.46C237.02 22.86 238 21.69 239.42 20.81C240.84 19.93 242.4 19.49 244.1 19.49C245.8 19.49 247.16 19.71 248.29 20.14C249.42 20.57 250.32 21.18 251 21.97C251.68 22.76 252.16 23.72 252.44 24.86C252.72 26 252.86 27.28 252.86 28.7V44.08H249.94V29.17C249.94 28.15 249.85 27.2 249.66 26.32C249.48 25.44 249.15 24.68 248.69 24.03C248.23 23.38 247.6 22.87 246.81 22.5C246.02 22.13 245.04 21.94 243.87 21.94C242.7 21.94 241.65 22.15 240.74 22.57C239.83 22.99 239.06 23.56 238.42 24.28C237.79 25.01 237.29 25.87 236.94 26.87C236.58 27.87 236.39 28.96 236.36 30.13V44.07H233.44V20.17H236.36L236.37 20.19Z" fill="#496E83"/>
<path d="M272.12 24.85C271.78 24.19 271.33 23.64 270.75 23.21C270.17 22.78 269.52 22.46 268.78 22.26C268.04 22.06 267.25 21.96 266.42 21.96C265.77 21.96 265.12 22.03 264.45 22.17C263.78 22.31 263.18 22.54 262.62 22.86C262.06 23.18 261.62 23.61 261.28 24.13C260.94 24.66 260.77 25.3 260.77 26.08C260.77 26.73 260.93 27.28 261.26 27.72C261.59 28.16 261.99 28.55 262.49 28.85C262.98 29.16 263.52 29.41 264.11 29.61C264.7 29.81 265.24 29.97 265.73 30.1L269.62 30.98C270.45 31.1 271.28 31.33 272.1 31.65C272.92 31.97 273.64 32.4 274.28 32.92C274.91 33.45 275.43 34.09 275.83 34.87C276.23 35.65 276.43 36.55 276.43 37.6C276.43 38.9 276.14 40 275.55 40.91C274.96 41.82 274.21 42.56 273.3 43.13C272.39 43.7 271.36 44.11 270.22 44.36C269.08 44.61 267.95 44.73 266.84 44.73C264.03 44.73 261.75 44.07 260.01 42.74C258.26 41.41 257.27 39.28 257.02 36.35H259.94C260.06 38.33 260.78 39.82 262.09 40.82C263.4 41.82 265.03 42.32 266.98 42.32C267.69 42.32 268.42 42.24 269.18 42.09C269.94 41.94 270.64 41.67 271.29 41.3C271.94 40.93 272.47 40.46 272.89 39.89C273.31 39.32 273.51 38.62 273.51 37.78C273.51 37.07 273.36 36.48 273.07 36C272.78 35.52 272.38 35.12 271.89 34.79C271.4 34.47 270.83 34.2 270.2 33.98C269.57 33.76 268.93 33.58 268.28 33.42L264.53 32.59C263.57 32.34 262.69 32.06 261.89 31.73C261.09 31.41 260.38 31.01 259.78 30.53C259.18 30.05 258.71 29.47 258.37 28.77C258.03 28.08 257.86 27.22 257.86 26.2C257.86 25 258.13 23.96 258.67 23.1C259.21 22.24 259.91 21.54 260.78 21.02C261.64 20.5 262.61 20.11 263.67 19.86C264.74 19.61 265.79 19.49 266.84 19.49C268.04 19.49 269.16 19.64 270.2 19.95C271.24 20.26 272.15 20.74 272.93 21.39C273.72 22.04 274.34 22.84 274.81 23.8C275.27 24.76 275.53 25.88 275.6 27.18H272.68C272.65 26.29 272.46 25.51 272.12 24.84V24.85Z" fill="#496E83"/>
<path d="M297.31 44.0902V39.7802H297.22C296.45 41.3902 295.33 42.6102 293.86 43.4602C292.39 44.3102 290.76 44.7302 288.97 44.7302C287.46 44.7302 286.17 44.5202 285.1 44.1102C284.03 43.7002 283.17 43.1002 282.51 42.3302C281.85 41.5602 281.36 40.6202 281.05 39.5002C280.74 38.3802 280.59 37.1202 280.59 35.7002V20.1902H283.51V35.7502C283.57 37.9102 284.07 39.5502 285.01 40.6602C285.95 41.7702 287.58 42.3302 289.9 42.3302C291.17 42.3302 292.25 42.0602 293.14 41.5202C294.03 40.9802 294.78 40.2602 295.36 39.3702C295.94 38.4802 296.38 37.4502 296.66 36.2902C296.94 35.1302 297.08 33.9502 297.08 32.7502V20.2002H300V44.1002H297.31V44.0902Z" fill="#496E83"/>
<path d="M308.47 11.02V44.09H305.55V11.02H308.47Z" fill="#496E83"/>
<path d="M323.57 20.19V22.65H318.71V38.77C318.71 39.73 318.84 40.48 319.1 41.02C319.36 41.56 320.02 41.86 321.07 41.92C321.9 41.92 322.74 41.87 323.57 41.78V44.23C323.14 44.23 322.71 44.25 322.27 44.28C321.84 44.31 321.4 44.33 320.97 44.33C319.02 44.33 317.67 43.95 316.89 43.2C316.12 42.44 315.75 41.05 315.78 39.01V22.66H311.61V20.2H315.78V13.02H318.7V20.2H323.56L323.57 20.19Z" fill="#496E83"/>
<path d="M330.75 11.02V15.7H327.83V11.02H330.75ZM330.75 20.19V44.09H327.83V20.19H330.75Z" fill="#496E83"/>
<path d="M339.22 20.19V24.31H339.31C339.87 22.86 340.85 21.69 342.27 20.81C343.69 19.93 345.25 19.49 346.95 19.49C348.65 19.49 350.01 19.71 351.14 20.14C352.27 20.57 353.17 21.18 353.85 21.97C354.53 22.76 355.01 23.72 355.29 24.86C355.57 26 355.71 27.28 355.71 28.7V44.08H352.79V29.17C352.79 28.15 352.7 27.2 352.51 26.32C352.33 25.44 352 24.68 351.54 24.03C351.08 23.38 350.45 22.87 349.66 22.5C348.87 22.13 347.89 21.94 346.72 21.94C345.55 21.94 344.5 22.15 343.59 22.57C342.68 22.99 341.91 23.56 341.27 24.28C340.64 25.01 340.14 25.87 339.79 26.87C339.43 27.87 339.24 28.96 339.21 30.13V44.07H336.29V20.17H339.21L339.22 20.19Z" fill="#496E83"/>
<path d="M380.84 46.91C380.45 48.33 379.84 49.53 379.01 50.52C378.18 51.51 377.09 52.26 375.75 52.79C374.41 53.31 372.76 53.58 370.82 53.58C369.62 53.58 368.44 53.44 367.3 53.16C366.16 52.88 365.13 52.45 364.22 51.86C363.31 51.27 362.55 50.52 361.95 49.61C361.35 48.7 361 47.61 360.91 46.35H363.83C363.98 47.24 364.29 47.99 364.73 48.6C365.18 49.2 365.72 49.69 366.35 50.06C366.98 50.43 367.68 50.7 368.46 50.87C369.23 51.04 370.02 51.12 370.82 51.12C373.54 51.12 375.5 50.35 376.7 48.8C377.9 47.25 378.51 45.03 378.51 42.13V38.89H378.42C377.74 40.37 376.74 41.56 375.43 42.46C374.12 43.36 372.58 43.8 370.82 43.8C368.91 43.8 367.27 43.48 365.91 42.85C364.55 42.22 363.43 41.35 362.55 40.23C361.67 39.11 361.03 37.81 360.63 36.32C360.23 34.82 360.03 33.23 360.03 31.53C360.03 29.83 360.27 28.34 360.75 26.88C361.23 25.41 361.92 24.13 362.83 23.04C363.74 21.94 364.87 21.08 366.21 20.45C367.55 19.82 369.09 19.5 370.82 19.5C371.72 19.5 372.56 19.62 373.34 19.87C374.13 20.12 374.84 20.46 375.49 20.91C376.14 21.36 376.72 21.88 377.23 22.46C377.74 23.05 378.13 23.66 378.41 24.31H378.5V20.19H381.42V42.14C381.42 43.9 381.23 45.49 380.84 46.91ZM374.14 40.55C375.1 40.01 375.9 39.3 376.55 38.42C377.2 37.54 377.68 36.53 378.01 35.39C378.33 34.25 378.5 33.07 378.5 31.87C378.5 30.67 378.36 29.52 378.08 28.35C377.8 27.18 377.35 26.11 376.74 25.15C376.12 24.19 375.33 23.42 374.35 22.83C373.38 22.24 372.2 21.95 370.81 21.95C369.42 21.95 368.23 22.24 367.24 22.81C366.25 23.38 365.43 24.13 364.78 25.06C364.13 25.99 363.66 27.04 363.37 28.23C363.08 29.42 362.93 30.63 362.93 31.87C362.93 33.11 363.08 34.25 363.39 35.39C363.7 36.53 364.18 37.54 364.83 38.42C365.48 39.3 366.3 40.01 367.28 40.55C368.27 41.09 369.44 41.36 370.8 41.36C372.07 41.36 373.18 41.09 374.13 40.55H374.14Z" fill="#496E83"/>
<path d="M38.43 22.21C40.01 20.1 40.8 17.82 40.8 15.37C40.8 12.92 40.16 10.74 38.9 8.67C37.63 6.6 35.92 4.96 33.77 3.74C31.62 2.52 29.31 1.92 26.85 1.92H1.92V44.11H0V0H26.85C29.66 0 32.28 0.69 34.72 2.08C37.16 3.47 39.11 5.34 40.55 7.71C42 10.08 42.72 12.63 42.72 15.37C42.72 18.11 41.98 20.27 40.51 22.24C41.98 24.28 42.72 26.36 42.72 28.47C42.72 30.85 42.29 33.03 41.44 35.01C40.59 36.99 39.44 38.64 37.99 39.95C36.54 41.26 34.86 42.28 32.94 43.01C31.02 43.74 28.99 44.1 26.84 44.1H14.48V42.18H26.84C28.7 42.18 30.49 41.83 32.19 41.13C33.89 40.43 35.38 39.47 36.64 38.27C37.9 37.06 38.91 35.61 39.66 33.9C40.41 32.2 40.79 30.38 40.79 28.47C40.79 27.62 40.59 26.59 40.19 25.39C39.79 24.19 39.2 23.13 38.42 22.21H38.43ZM38.89 15.37C38.89 17.86 38.01 20.1 36.25 22.11C38.01 24.06 38.89 26.19 38.89 28.48C38.89 30.77 38.33 32.72 37.23 34.54C36.12 36.36 34.65 37.77 32.81 38.78C30.97 39.78 28.99 40.28 26.86 40.28H14.5V38.36H26.86C29.63 38.36 32.01 37.43 34 35.58C35.99 33.72 36.98 31.36 36.98 28.48C36.98 27.45 36.72 26.31 36.19 25.06C35.67 23.81 34.94 22.85 34.02 22.2C35.99 20.35 36.98 18.08 36.98 15.38C36.98 12.68 35.97 10.54 33.94 8.63C31.92 6.72 29.55 5.77 26.86 5.77H5.75V44.12H3.83V3.84H26.84C28.95 3.84 30.94 4.36 32.79 5.4C34.64 6.44 36.12 7.85 37.22 9.64C38.32 11.42 38.87 13.34 38.87 15.38L38.89 15.37ZM14.49 21.41H26.85C28.61 21.41 30.09 20.88 31.31 19.83C32.53 18.77 33.13 17.29 33.13 15.37C33.13 13.83 32.5 12.48 31.23 11.32C29.96 10.17 28.5 9.59 26.85 9.59H9.59V44.11H7.67V7.67H26.85C29.03 7.67 30.95 8.44 32.59 9.97C34.23 11.51 35.05 13.3 35.05 15.36C35.05 16.98 34.67 18.39 33.92 19.59C33.17 20.8 32.15 21.73 30.87 22.39C33.66 23.39 35.05 25.41 35.05 28.46C35.05 30.88 34.25 32.81 32.65 34.25C31.05 35.7 29.12 36.42 26.84 36.42H14.48V34.5H26.84C28.6 34.5 30.08 33.97 31.3 32.92C32.52 31.86 33.12 30.38 33.12 28.46C33.12 27.16 32.66 26.02 31.74 25.02C30.82 24.03 29.46 23.45 27.66 23.29C27.48 23.31 27.21 23.32 26.83 23.32H14.47V21.4L14.49 21.41ZM13.42 44.11H11.5V11.51H26.84C28.05 11.51 29.08 11.88 29.93 12.62C30.78 13.36 31.21 14.28 31.21 15.38C31.21 16.84 30.81 17.89 30.01 18.54C29.21 19.19 28.15 19.51 26.84 19.51H14.48V17.59H26.84C28.47 17.59 29.29 16.85 29.29 15.38C29.29 14.78 29.06 14.3 28.6 13.96C28.14 13.61 27.55 13.44 26.84 13.44H13.42V44.12V44.11ZM29.3 28.74C29.3 28.05 29.09 27.59 28.67 27.36C28.25 27.13 27.64 27.01 26.85 27.01H14.49V25.09H26.85C29.76 25.09 31.22 26.31 31.22 28.74C31.22 30.11 30.82 31.09 30.02 31.7C29.22 32.3 28.16 32.61 26.85 32.61H14.49V30.69H26.85C28.48 30.69 29.3 30.04 29.3 28.75V28.74Z" fill="#496E83"/>
</g>
<defs>
<clipPath id="clip0_251_1360">
<rect width="381.41" height="53.58" fill="white"/>
</clipPath>
</defs>
</svg>
