<svg width="382" height="55" viewBox="0 0 382 55" fill="none" xmlns="http://www.w3.org/2000/svg">
<g clip-path="url(#clip0_251_1342)">
<path d="M46.39 20.8282H51.35V25.4582H51.44C51.59 24.8082 51.9 24.1782 52.34 23.5582C52.79 22.9382 53.33 22.3782 53.96 21.8682C54.59 21.3582 55.29 20.9482 56.07 20.6382C56.84 20.3282 57.63 20.1782 58.43 20.1782C59.05 20.1782 59.47 20.1982 59.7 20.2282C59.93 20.2582 60.17 20.2882 60.42 20.3182V25.4082C60.05 25.3482 59.67 25.2882 59.29 25.2482C58.9 25.1982 58.53 25.1782 58.16 25.1782C57.26 25.1782 56.42 25.3582 55.64 25.7082C54.85 26.0682 54.17 26.5882 53.58 27.2782C52.99 27.9782 52.53 28.8282 52.19 29.8482C51.85 30.8682 51.68 32.0382 51.68 33.3682V44.7582H46.4V20.8182L46.39 20.8282Z" fill="white"/>
<path d="M65.98 34.1583C65.98 35.0883 66.11 35.9783 66.37 36.8483C66.63 37.7183 67.03 38.4683 67.55 39.1183C68.07 39.7683 68.74 40.2883 69.54 40.6683C70.34 41.0583 71.3 41.2483 72.41 41.2483C73.95 41.2483 75.2 40.9183 76.14 40.2483C77.08 39.5883 77.78 38.5883 78.25 37.2583H83.25C82.97 38.5583 82.49 39.7183 81.81 40.7283C81.13 41.7383 80.31 42.6083 79.36 43.2983C78.4 43.9983 77.33 44.5183 76.14 44.8783C74.95 45.2283 73.71 45.4083 72.41 45.4083C70.53 45.4083 68.86 45.0983 67.41 44.4783C65.96 43.8583 64.73 42.9983 63.73 41.8883C62.73 40.7783 61.97 39.4483 61.46 37.9083C60.95 36.3683 60.7 34.6683 60.7 32.8183C60.7 31.1183 60.97 29.5083 61.51 27.9783C62.05 26.4483 62.82 25.1083 63.83 23.9483C64.83 22.7883 66.04 21.8683 67.47 21.1883C68.89 20.5083 70.5 20.1683 72.29 20.1683C74.17 20.1683 75.86 20.5583 77.36 21.3483C78.86 22.1383 80.1 23.1783 81.09 24.4783C82.08 25.7783 82.8 27.2683 83.24 28.9483C83.69 30.6283 83.8 32.3683 83.59 34.1583H65.99H65.98ZM78.3 30.6883C78.24 29.8583 78.06 29.0483 77.77 28.2783C77.48 27.5083 77.08 26.8383 76.57 26.2683C76.06 25.6983 75.44 25.2383 74.72 24.8783C73.99 24.5283 73.18 24.3483 72.29 24.3483C71.4 24.3483 70.52 24.5083 69.77 24.8383C69.01 25.1583 68.36 25.6083 67.83 26.1783C67.29 26.7483 66.86 27.4183 66.53 28.1883C66.21 28.9583 66.03 29.7983 66 30.6883H78.32H78.3Z" fill="white"/>
<path d="M91.73 34.1583C91.73 35.0883 91.86 35.9783 92.12 36.8483C92.38 37.7183 92.78 38.4683 93.3 39.1183C93.82 39.7683 94.49 40.2883 95.29 40.6683C96.09 41.0583 97.05 41.2483 98.16 41.2483C99.7 41.2483 100.95 40.9183 101.89 40.2483C102.83 39.5883 103.53 38.5883 104 37.2583H109C108.72 38.5583 108.24 39.7183 107.56 40.7283C106.88 41.7483 106.06 42.6083 105.11 43.2983C104.15 43.9983 103.08 44.5183 101.89 44.8783C100.7 45.2283 99.46 45.4083 98.16 45.4083C96.28 45.4083 94.61 45.0983 93.16 44.4783C91.71 43.8583 90.48 42.9983 89.48 41.8883C88.48 40.7783 87.72 39.4483 87.21 37.9083C86.7 36.3683 86.45 34.6683 86.45 32.8183C86.45 31.1183 86.72 29.5083 87.26 27.9783C87.8 26.4483 88.57 25.1083 89.58 23.9483C90.58 22.7883 91.79 21.8683 93.22 21.1883C94.64 20.5083 96.25 20.1683 98.04 20.1683C99.92 20.1683 101.61 20.5583 103.11 21.3483C104.61 22.1383 105.85 23.1783 106.84 24.4783C107.83 25.7783 108.55 27.2683 108.99 28.9483C109.44 30.6283 109.55 32.3683 109.34 34.1583H91.74H91.73ZM104.05 30.6883C103.99 29.8583 103.81 29.0483 103.52 28.2783C103.23 27.5083 102.82 26.8383 102.32 26.2683C101.81 25.6983 101.19 25.2383 100.47 24.8783C99.74 24.5283 98.93 24.3483 98.04 24.3483C97.15 24.3483 96.27 24.5083 95.52 24.8383C94.76 25.1583 94.11 25.6083 93.58 26.1783C93.04 26.7483 92.61 27.4183 92.28 28.1883C91.96 28.9583 91.78 29.7983 91.75 30.6883H104.07H104.05Z" fill="white"/>
<path d="M112.53 20.8282H131.98V24.5382L118.27 40.6082H132.67V44.7782H111.6V41.0682L124.85 24.9982H112.53V20.8282Z" fill="white"/>
<path d="M156.57 39.4383C156.57 40.0883 156.65 40.5483 156.82 40.8283C156.99 41.1083 157.32 41.2483 157.82 41.2483H158.38C158.59 41.2483 158.84 41.2183 159.12 41.1583V44.8183C158.94 44.8783 158.7 44.9483 158.4 45.0283C158.11 45.1083 157.81 45.1783 157.5 45.2383C157.19 45.2983 156.88 45.3483 156.57 45.3783C156.26 45.4083 156 45.4283 155.78 45.4283C154.7 45.4283 153.8 45.2083 153.09 44.7783C152.38 44.3483 151.92 43.5883 151.7 42.5083C150.65 43.5283 149.36 44.2683 147.83 44.7283C146.3 45.1883 144.83 45.4183 143.41 45.4183C142.33 45.4183 141.29 45.2683 140.31 44.9783C139.32 44.6883 138.45 44.2583 137.69 43.6783C136.93 43.1083 136.33 42.3783 135.88 41.4983C135.43 40.6183 135.21 39.5883 135.21 38.4183C135.21 36.9383 135.48 35.7283 136.02 34.8083C136.56 33.8783 137.27 33.1583 138.15 32.6283C139.03 32.1083 140.02 31.7283 141.11 31.4983C142.2 31.2683 143.31 31.0883 144.42 30.9683C145.38 30.7783 146.29 30.6483 147.15 30.5783C148.01 30.4983 148.78 30.3683 149.44 30.1883C150.1 30.0083 150.63 29.7183 151.02 29.3283C151.41 28.9383 151.6 28.3683 151.6 27.5883C151.6 26.9083 151.44 26.3583 151.11 25.9183C150.79 25.4883 150.38 25.1583 149.91 24.9183C149.43 24.6883 148.9 24.5283 148.31 24.4583C147.72 24.3783 147.17 24.3383 146.64 24.3383C145.16 24.3383 143.94 24.6483 142.98 25.2683C142.02 25.8883 141.48 26.8483 141.36 28.1383H136.08C136.17 26.5983 136.54 25.3083 137.19 24.2983C137.84 23.2783 138.66 22.4583 139.67 21.8383C140.67 21.2183 141.81 20.7883 143.07 20.5383C144.34 20.2883 145.63 20.1683 146.96 20.1683C148.13 20.1683 149.29 20.2883 150.43 20.5383C151.57 20.7883 152.6 21.1883 153.51 21.7383C154.42 22.2983 155.15 23.0083 155.71 23.8883C156.27 24.7683 156.54 25.8383 156.54 27.1083V39.4283L156.57 39.4383ZM151.29 32.7683C150.49 33.2983 149.5 33.6083 148.33 33.7183C147.16 33.8283 145.98 33.9883 144.81 34.2083C144.25 34.2983 143.71 34.4283 143.19 34.5983C142.66 34.7683 142.2 34.9983 141.8 35.2983C141.4 35.5883 141.08 35.9783 140.85 36.4583C140.62 36.9383 140.5 37.5183 140.5 38.1983C140.5 38.7883 140.67 39.2783 141.01 39.6783C141.35 40.0783 141.76 40.3983 142.24 40.6283C142.72 40.8583 143.24 41.0183 143.82 41.1183C144.39 41.2083 144.91 41.2583 145.37 41.2583C145.96 41.2583 146.59 41.1783 147.27 41.0283C147.95 40.8783 148.59 40.6083 149.19 40.2383C149.79 39.8683 150.29 39.3983 150.69 38.8283C151.09 38.2583 151.29 37.5583 151.29 36.7183V32.7783V32.7683Z" fill="white"/>
<path d="M198.51 18.2983C197.88 17.2983 197.1 16.4582 196.19 15.7782C195.28 15.0982 194.27 14.5782 193.18 14.2282C192.08 13.8782 190.93 13.6982 189.73 13.6982C187.54 13.6982 185.65 14.1182 184.08 14.9482C182.51 15.7782 181.22 16.8882 180.21 18.2582C179.2 19.6282 178.47 21.1882 177.99 22.9082C177.51 24.6382 177.27 26.4082 177.27 28.2382C177.27 30.0682 177.51 31.7983 177.99 33.5382C178.47 35.2782 179.21 36.8383 180.21 38.2183C181.21 39.5982 182.5 40.6982 184.08 41.5282C185.66 42.3582 187.54 42.7782 189.73 42.7782C191.27 42.7782 192.66 42.4982 193.9 41.9482C195.13 41.3883 196.2 40.6382 197.1 39.6782C198 38.7183 198.72 37.5982 199.28 36.3182C199.84 35.0382 200.19 33.6582 200.35 32.1782H203.5C203.28 34.2183 202.81 36.0582 202.06 37.6882C201.32 39.3282 200.36 40.7183 199.19 41.8582C198.02 42.9982 196.63 43.8783 195.04 44.4982C193.45 45.1182 191.68 45.4282 189.74 45.4282C187.15 45.4282 184.87 44.9582 182.91 44.0182C180.95 43.0783 179.32 41.8183 178.02 40.2383C176.72 38.6683 175.75 36.8382 175.1 34.7782C174.45 32.7082 174.13 30.5382 174.13 28.2482C174.13 25.9582 174.45 23.7882 175.1 21.7183C175.75 19.6483 176.72 17.8182 178.02 16.2282C179.32 14.6382 180.94 13.3682 182.91 12.4282C184.87 11.4882 187.15 11.0182 189.74 11.0182C191.31 11.0182 192.85 11.2482 194.35 11.7082C195.85 12.1682 197.21 12.8582 198.43 13.7682C199.65 14.6782 200.67 15.7983 201.49 17.1283C202.31 18.4583 202.82 19.9882 203.04 21.7083H199.89C199.61 20.4382 199.16 19.3082 198.52 18.3082L198.51 18.2983Z" fill="white"/>
<path d="M222.68 21.1982C224.08 21.8782 225.26 22.7882 226.22 23.9282C227.18 25.0682 227.9 26.4082 228.4 27.9382C228.89 29.4682 229.14 31.0982 229.14 32.8282C229.14 34.5582 228.89 36.1882 228.4 37.7182C227.9 39.2482 227.18 40.5782 226.22 41.7282C225.26 42.8682 224.08 43.7782 222.68 44.4382C221.27 45.0982 219.66 45.4382 217.84 45.4382C216.02 45.4382 214.4 45.1082 213 44.4382C211.59 43.7782 210.41 42.8682 209.46 41.7282C208.5 40.5882 207.78 39.2482 207.28 37.7182C206.78 36.1882 206.54 34.5582 206.54 32.8282C206.54 31.0982 206.79 29.4682 207.28 27.9382C207.77 26.4082 208.5 25.0782 209.46 23.9282C210.42 22.7882 211.6 21.8782 213 21.1982C214.4 20.5182 216.02 20.1782 217.84 20.1782C219.66 20.1782 221.27 20.5182 222.68 21.1982ZM214.18 23.5082C213.13 24.0982 212.26 24.8682 211.56 25.8282C210.86 26.7882 210.34 27.8682 209.99 29.0882C209.63 30.3082 209.46 31.5482 209.46 32.8182C209.46 34.0882 209.64 35.3282 209.99 36.5482C210.34 37.7682 210.87 38.8582 211.56 39.8182C212.25 40.7782 213.13 41.5482 214.18 42.1382C215.23 42.7282 216.45 43.0182 217.84 43.0182C219.23 43.0182 220.45 42.7282 221.5 42.1382C222.55 41.5482 223.42 40.7782 224.12 39.8182C224.81 38.8582 225.34 37.7782 225.69 36.5482C226.04 35.3282 226.22 34.0882 226.22 32.8182C226.22 31.5482 226.04 30.3082 225.69 29.0882C225.33 27.8682 224.81 26.7782 224.12 25.8282C223.42 24.8682 222.55 24.0982 221.5 23.5082C220.45 22.9182 219.23 22.6282 217.84 22.6282C216.45 22.6282 215.23 22.9182 214.18 23.5082Z" fill="white"/>
<path d="M236.37 20.8683V24.9883H236.46C237.02 23.5383 238 22.3683 239.42 21.4883C240.84 20.6083 242.4 20.1683 244.1 20.1683C245.8 20.1683 247.16 20.3883 248.29 20.8183C249.42 21.2483 250.32 21.8583 251 22.6483C251.68 23.4383 252.16 24.3983 252.44 25.5383C252.72 26.6783 252.86 27.9583 252.86 29.3783V44.7583H249.94V29.8483C249.94 28.8283 249.85 27.8783 249.66 26.9983C249.48 26.1183 249.15 25.3583 248.69 24.7083C248.23 24.0583 247.6 23.5483 246.81 23.1783C246.02 22.8083 245.04 22.6183 243.87 22.6183C242.7 22.6183 241.65 22.8283 240.74 23.2483C239.83 23.6683 239.06 24.2383 238.42 24.9583C237.79 25.6883 237.29 26.5483 236.94 27.5483C236.58 28.5483 236.39 29.6383 236.36 30.8083V44.7483H233.44V20.8483H236.36L236.37 20.8683Z" fill="white"/>
<path d="M272.12 25.5283C271.78 24.8683 271.33 24.3183 270.75 23.8883C270.17 23.4583 269.52 23.1383 268.78 22.9383C268.04 22.7383 267.25 22.6383 266.42 22.6383C265.77 22.6383 265.12 22.7083 264.45 22.8483C263.78 22.9883 263.18 23.2183 262.62 23.5383C262.06 23.8583 261.62 24.2883 261.28 24.8083C260.94 25.3383 260.77 25.9783 260.77 26.7583C260.77 27.4083 260.93 27.9583 261.26 28.3983C261.59 28.8383 261.99 29.2283 262.49 29.5283C262.98 29.8383 263.52 30.0883 264.11 30.2883C264.7 30.4883 265.24 30.6483 265.73 30.7783L269.62 31.6583C270.45 31.7783 271.28 32.0083 272.1 32.3283C272.92 32.6483 273.64 33.0783 274.28 33.5983C274.91 34.1283 275.43 34.7683 275.83 35.5483C276.23 36.3283 276.43 37.2283 276.43 38.2783C276.43 39.5783 276.14 40.6783 275.55 41.5883C274.96 42.4983 274.21 43.2383 273.3 43.8083C272.39 44.3783 271.36 44.7883 270.22 45.0383C269.08 45.2883 267.95 45.4083 266.84 45.4083C264.03 45.4083 261.75 44.7483 260.01 43.4183C258.26 42.0883 257.27 39.9583 257.02 37.0283H259.94C260.06 39.0083 260.78 40.4983 262.09 41.4983C263.4 42.4983 265.03 42.9983 266.98 42.9983C267.69 42.9983 268.42 42.9183 269.18 42.7683C269.94 42.6183 270.64 42.3483 271.29 41.9783C271.94 41.6083 272.47 41.1383 272.89 40.5683C273.31 39.9983 273.51 39.2983 273.51 38.4583C273.51 37.7483 273.36 37.1583 273.07 36.6783C272.78 36.1983 272.38 35.7983 271.89 35.4683C271.4 35.1483 270.83 34.8783 270.2 34.6583C269.57 34.4383 268.93 34.2583 268.28 34.0983L264.53 33.2683C263.57 33.0183 262.69 32.7383 261.89 32.4083C261.09 32.0883 260.38 31.6883 259.78 31.2083C259.18 30.7283 258.71 30.1483 258.37 29.4483C258.03 28.7583 257.86 27.8983 257.86 26.8783C257.86 25.6783 258.13 24.6383 258.67 23.7783C259.21 22.9183 259.91 22.2183 260.78 21.6983C261.64 21.1783 262.61 20.7883 263.67 20.5383C264.74 20.2883 265.79 20.1683 266.84 20.1683C268.04 20.1683 269.16 20.3183 270.2 20.6283C271.24 20.9383 272.15 21.4183 272.93 22.0683C273.72 22.7183 274.34 23.5183 274.81 24.4783C275.27 25.4383 275.53 26.5583 275.6 27.8583H272.68C272.65 26.9683 272.46 26.1883 272.12 25.5183V25.5283Z" fill="white"/>
<path d="M297.31 44.7682V40.4582H297.22C296.45 42.0682 295.33 43.2882 293.86 44.1382C292.39 44.9882 290.76 45.4082 288.97 45.4082C287.46 45.4082 286.17 45.1982 285.1 44.7882C284.03 44.3782 283.17 43.7782 282.51 43.0082C281.85 42.2382 281.36 41.2982 281.05 40.1782C280.74 39.0582 280.59 37.7982 280.59 36.3782V20.8682H283.51V36.4282C283.57 38.5882 284.07 40.2282 285.01 41.3382C285.95 42.4482 287.58 43.0082 289.9 43.0082C291.17 43.0082 292.25 42.7382 293.14 42.1982C294.03 41.6582 294.78 40.9382 295.36 40.0482C295.94 39.1582 296.38 38.1282 296.66 36.9682C296.94 35.8082 297.08 34.6282 297.08 33.4282V20.8782H300V44.7782H297.31V44.7682Z" fill="white"/>
<path d="M308.47 11.6982V44.7682H305.55V11.6982H308.47Z" fill="white"/>
<path d="M323.57 20.8682V23.3282H318.71V39.4482C318.71 40.4082 318.84 41.1582 319.1 41.6982C319.36 42.2382 320.02 42.5382 321.07 42.5982C321.9 42.5982 322.74 42.5482 323.57 42.4582V44.9082C323.14 44.9082 322.71 44.9282 322.27 44.9582C321.84 44.9882 321.4 45.0082 320.97 45.0082C319.02 45.0082 317.67 44.6282 316.89 43.8782C316.12 43.1182 315.75 41.7282 315.78 39.6882V23.3382H311.61V20.8782H315.78V13.6982H318.7V20.8782H323.56L323.57 20.8682Z" fill="white"/>
<path d="M330.75 11.6982V16.3782H327.83V11.6982H330.75ZM330.75 20.8682V44.7682H327.83V20.8682H330.75Z" fill="white"/>
<path d="M339.22 20.8683V24.9883H339.31C339.87 23.5383 340.85 22.3683 342.27 21.4883C343.69 20.6083 345.25 20.1683 346.95 20.1683C348.65 20.1683 350.01 20.3883 351.14 20.8183C352.27 21.2483 353.17 21.8583 353.85 22.6483C354.53 23.4383 355.01 24.3983 355.29 25.5383C355.57 26.6783 355.71 27.9583 355.71 29.3783V44.7583H352.79V29.8483C352.79 28.8283 352.7 27.8783 352.51 26.9983C352.33 26.1183 352 25.3583 351.54 24.7083C351.08 24.0583 350.45 23.5483 349.66 23.1783C348.87 22.8083 347.89 22.6183 346.72 22.6183C345.55 22.6183 344.5 22.8283 343.59 23.2483C342.68 23.6683 341.91 24.2383 341.27 24.9583C340.64 25.6883 340.14 26.5483 339.79 27.5483C339.43 28.5483 339.24 29.6383 339.21 30.8083V44.7483H336.29V20.8483H339.21L339.22 20.8683Z" fill="white"/>
<path d="M380.84 47.5882C380.45 49.0082 379.84 50.2082 379.01 51.1982C378.18 52.1882 377.09 52.9382 375.75 53.4682C374.41 53.9882 372.76 54.2582 370.82 54.2582C369.62 54.2582 368.44 54.1182 367.3 53.8382C366.16 53.5582 365.13 53.1282 364.22 52.5382C363.31 51.9482 362.55 51.1982 361.95 50.2882C361.35 49.3782 361 48.2882 360.91 47.0282H363.83C363.98 47.9182 364.29 48.6682 364.73 49.2782C365.18 49.8782 365.72 50.3682 366.35 50.7382C366.98 51.1082 367.68 51.3782 368.46 51.5482C369.23 51.7182 370.02 51.7982 370.82 51.7982C373.54 51.7982 375.5 51.0282 376.7 49.4782C377.9 47.9282 378.51 45.7082 378.51 42.8082V39.5682H378.42C377.74 41.0482 376.74 42.2382 375.43 43.1382C374.12 44.0382 372.58 44.4782 370.82 44.4782C368.91 44.4782 367.27 44.1582 365.91 43.5282C364.55 42.8982 363.43 42.0282 362.55 40.9082C361.67 39.7882 361.03 38.4882 360.63 36.9982C360.23 35.4982 360.03 33.9082 360.03 32.2082C360.03 30.5082 360.27 29.0182 360.75 27.5582C361.23 26.0882 361.92 24.8082 362.83 23.7182C363.74 22.6182 364.87 21.7582 366.21 21.1282C367.55 20.4982 369.09 20.1782 370.82 20.1782C371.72 20.1782 372.56 20.2982 373.34 20.5482C374.13 20.7982 374.84 21.1382 375.49 21.5882C376.14 22.0382 376.72 22.5582 377.23 23.1382C377.74 23.7282 378.13 24.3382 378.41 24.9882H378.5V20.8682H381.42V42.8182C381.42 44.5782 381.23 46.1682 380.84 47.5882ZM374.14 41.2282C375.1 40.6882 375.9 39.9782 376.55 39.0982C377.2 38.2182 377.68 37.2082 378.01 36.0682C378.33 34.9282 378.5 33.7482 378.5 32.5482C378.5 31.3482 378.36 30.1982 378.08 29.0282C377.8 27.8582 377.35 26.7882 376.74 25.8282C376.12 24.8682 375.33 24.0982 374.35 23.5082C373.38 22.9182 372.2 22.6282 370.81 22.6282C369.42 22.6282 368.23 22.9182 367.24 23.4882C366.25 24.0582 365.43 24.8082 364.78 25.7382C364.13 26.6682 363.66 27.7182 363.37 28.9082C363.08 30.0982 362.93 31.3082 362.93 32.5482C362.93 33.7882 363.08 34.9282 363.39 36.0682C363.7 37.2082 364.18 38.2182 364.83 39.0982C365.48 39.9782 366.3 40.6882 367.28 41.2282C368.27 41.7682 369.44 42.0382 370.8 42.0382C372.07 42.0382 373.18 41.7682 374.13 41.2282H374.14Z" fill="white"/>
<path d="M38.43 22.8882C40.01 20.7782 40.8 18.4982 40.8 16.0482C40.8 13.5982 40.16 11.4182 38.9 9.34822C37.63 7.27822 35.92 5.63822 33.77 4.41822C31.62 3.19822 29.31 2.59822 26.85 2.59822H1.92V44.7882H0V0.678223H26.85C29.66 0.678223 32.28 1.36822 34.72 2.75822C37.16 4.14822 39.11 6.01822 40.55 8.38822C42 10.7582 42.72 13.3082 42.72 16.0482C42.72 18.7882 41.98 20.9482 40.51 22.9182C41.98 24.9582 42.72 27.0382 42.72 29.1482C42.72 31.5282 42.29 33.7082 41.44 35.6882C40.59 37.6682 39.44 39.3182 37.99 40.6282C36.54 41.9382 34.86 42.9582 32.94 43.6882C31.02 44.4182 28.99 44.7782 26.84 44.7782H14.48V42.8582H26.84C28.7 42.8582 30.49 42.5082 32.19 41.8082C33.89 41.1082 35.38 40.1482 36.64 38.9482C37.9 37.7382 38.91 36.2882 39.66 34.5782C40.41 32.8782 40.79 31.0582 40.79 29.1482C40.79 28.2982 40.59 27.2682 40.19 26.0682C39.79 24.8682 39.2 23.8082 38.42 22.8882H38.43ZM38.89 16.0482C38.89 18.5382 38.01 20.7782 36.25 22.7882C38.01 24.7382 38.89 26.8682 38.89 29.1582C38.89 31.4482 38.33 33.3982 37.23 35.2182C36.12 37.0382 34.65 38.4482 32.81 39.4582C30.97 40.4582 28.99 40.9582 26.86 40.9582H14.5V39.0382H26.86C29.63 39.0382 32.01 38.1082 34 36.2582C35.99 34.3982 36.98 32.0382 36.98 29.1582C36.98 28.1282 36.72 26.9882 36.19 25.7382C35.67 24.4882 34.94 23.5282 34.02 22.8782C35.99 21.0282 36.98 18.7582 36.98 16.0582C36.98 13.3582 35.97 11.2182 33.94 9.30822C31.92 7.39822 29.55 6.44822 26.86 6.44822H5.75V44.7982H3.83V4.51822H26.84C28.95 4.51822 30.94 5.03822 32.79 6.07822C34.64 7.11822 36.12 8.52822 37.22 10.3182C38.32 12.0982 38.87 14.0182 38.87 16.0582L38.89 16.0482ZM14.49 22.0882H26.85C28.61 22.0882 30.09 21.5582 31.31 20.5082C32.53 19.4482 33.13 17.9682 33.13 16.0482C33.13 14.5082 32.5 13.1582 31.23 11.9982C29.96 10.8482 28.5 10.2682 26.85 10.2682H9.59V44.7882H7.67V8.34822H26.85C29.03 8.34822 30.95 9.11822 32.59 10.6482C34.23 12.1882 35.05 13.9782 35.05 16.0382C35.05 17.6582 34.67 19.0682 33.92 20.2682C33.17 21.4782 32.15 22.4082 30.87 23.0682C33.66 24.0682 35.05 26.0882 35.05 29.1382C35.05 31.5582 34.25 33.4882 32.65 34.9282C31.05 36.3782 29.12 37.0982 26.84 37.0982H14.48V35.1782H26.84C28.6 35.1782 30.08 34.6482 31.3 33.5982C32.52 32.5382 33.12 31.0582 33.12 29.1382C33.12 27.8382 32.66 26.6982 31.74 25.6982C30.82 24.7082 29.46 24.1282 27.66 23.9682C27.48 23.9882 27.21 23.9982 26.83 23.9982H14.47V22.0782L14.49 22.0882ZM13.42 44.7882H11.5V12.1882H26.84C28.05 12.1882 29.08 12.5582 29.93 13.2982C30.78 14.0382 31.21 14.9582 31.21 16.0582C31.21 17.5182 30.81 18.5682 30.01 19.2182C29.21 19.8682 28.15 20.1882 26.84 20.1882H14.48V18.2682H26.84C28.47 18.2682 29.29 17.5282 29.29 16.0582C29.29 15.4582 29.06 14.9782 28.6 14.6382C28.14 14.2882 27.55 14.1182 26.84 14.1182H13.42V44.7982V44.7882ZM29.3 29.4182C29.3 28.7282 29.09 28.2682 28.67 28.0382C28.25 27.8082 27.64 27.6882 26.85 27.6882H14.49V25.7682H26.85C29.76 25.7682 31.22 26.9882 31.22 29.4182C31.22 30.7882 30.82 31.7682 30.02 32.3782C29.22 32.9782 28.16 33.2882 26.85 33.2882H14.49V31.3682H26.85C28.48 31.3682 29.3 30.7182 29.3 29.4282V29.4182Z" fill="white"/>
</g>
<defs>
<clipPath id="clip0_251_1342">
<rect width="381.41" height="53.58" fill="white" transform="translate(0 0.678223)"/>
</clipPath>
</defs>
</svg>
